<svg width="25" height="25" viewBox="0 0 25 25" fill="none" xmlns="http://www.w3.org/2000/svg">
<path fill-rule="evenodd" clip-rule="evenodd" d="M2.50033 5C2.27931 5 2.06735 5.0878 1.91107 5.24408C1.75479 5.40036 1.66699 5.61232 1.66699 5.83333C1.66699 6.05435 1.75479 6.26631 1.91107 6.42259C2.06735 6.57887 2.27931 6.66667 2.50033 6.66667H22.5003C22.7213 6.66667 22.9333 6.57887 23.0896 6.42259C23.2459 6.26631 23.3337 6.05435 23.3337 5.83333C23.3337 5.61232 23.2459 5.40036 23.0896 5.24408C22.9333 5.0878 22.7213 5 22.5003 5H2.50033ZM1.66699 12.5C1.66699 12.279 1.75479 12.067 1.91107 11.9107C2.06735 11.7545 2.27931 11.6667 2.50033 11.6667H22.5003C22.7213 11.6667 22.9333 11.7545 23.0896 11.9107C23.2459 12.067 23.3337 12.279 23.3337 12.5C23.3337 12.721 23.2459 12.933 23.0896 13.0893C22.9333 13.2455 22.7213 13.3333 22.5003 13.3333H2.50033C2.27931 13.3333 2.06735 13.2455 1.91107 13.0893C1.75479 12.933 1.66699 12.721 1.66699 12.5ZM1.66699 19.1667C1.66699 18.9457 1.75479 18.7337 1.91107 18.5774C2.06735 18.4211 2.27931 18.3333 2.50033 18.3333H22.5003C22.7213 18.3333 22.9333 18.4211 23.0896 18.5774C23.2459 18.7337 23.3337 18.9457 23.3337 19.1667C23.3337 19.3877 23.2459 19.5996 23.0896 19.7559C22.9333 19.9122 22.7213 20 22.5003 20H2.50033C2.27931 20 2.06735 19.9122 1.91107 19.7559C1.75479 19.5996 1.66699 19.3877 1.66699 19.1667Z" fill="white"/>
</svg>
