<svg width="23" height="22" viewBox="0 0 23 22" fill="none" xmlns="http://www.w3.org/2000/svg">
<g clip-path="url(#clip0)">
<path d="M21.2145 22.0001C21.885 22.0001 22.4287 21.4564 22.4287 20.7859V1.21421C22.4287 0.543555 21.885 0 21.2145 0H1.64292C0.97218 0 0.428711 0.543555 0.428711 1.21421V20.7859C0.428711 21.4564 0.97218 22.0001 1.64292 22.0001H21.2145Z" fill="#395185"/>
<path d="M15.6082 22.0001V13.4805H18.4679L18.8961 10.1603H15.6082V8.04038C15.6082 7.07908 15.8752 6.42398 17.2537 6.42398L19.0119 6.42321V3.45364C18.7077 3.41316 17.6641 3.32275 16.45 3.32275C13.915 3.32275 12.1795 4.87006 12.1795 7.71167V10.1603H9.3125V13.4805H12.1795V22.0001H15.6082Z" fill="white"/>
</g>
<defs>
<clipPath id="clip0">
<rect width="22" height="22" fill="white" transform="translate(0.428711)"/>
</clipPath>
</defs>
</svg>
