<svg width="22" height="22" viewBox="0 0 22 22" fill="none" xmlns="http://www.w3.org/2000/svg">
<path d="M9.9796 3.08615C11.3034 3.08494 12.5977 3.47637 13.699 4.21093C14.8002 4.94548 15.6588 5.99016 16.1663 7.21279C16.6737 8.43543 16.8071 9.78109 16.5495 11.0795C16.292 12.378 15.6552 13.5709 14.7196 14.5074C13.784 15.4438 12.5917 16.0818 11.2934 16.3405C9.99522 16.5992 8.64944 16.467 7.42634 15.9607C6.20324 15.4544 5.15778 14.5967 4.42222 13.4961C3.68666 12.3956 3.29405 11.1016 3.29405 9.77782C3.30207 8.00661 4.00883 6.31014 5.2607 5.05712C6.51258 3.8041 8.2084 3.09579 9.9796 3.08615ZM9.9796 1.83337C8.40834 1.83337 6.87236 2.29931 5.56591 3.17225C4.25945 4.0452 3.24119 5.28595 2.63989 6.73761C2.0386 8.18927 1.88127 9.78663 2.18781 11.3277C2.49435 12.8688 3.25098 14.2843 4.36203 15.3954C5.47308 16.5064 6.88865 17.2631 8.42972 17.5696C9.97079 17.8762 11.5682 17.7188 13.0198 17.1175C14.4715 16.5162 15.7122 15.498 16.5852 14.1915C17.4581 12.8851 17.924 11.3491 17.924 9.77782C17.924 7.67082 17.087 5.65012 15.5972 4.16025C14.1073 2.67038 12.0866 1.83337 9.9796 1.83337Z" fill="black"/>
<path d="M21.3892 20.3439L16.8854 15.8094L16.0176 16.6711L20.5215 21.2056C20.578 21.2625 20.6453 21.3078 20.7194 21.3388C20.7934 21.3698 20.8729 21.3859 20.9532 21.3862C21.0335 21.3865 21.1131 21.3709 21.1874 21.3405C21.2616 21.31 21.3292 21.2652 21.3862 21.2086C21.4432 21.152 21.4884 21.0848 21.5194 21.0107C21.5504 20.9366 21.5665 20.8572 21.5668 20.7769C21.5671 20.6966 21.5516 20.617 21.5211 20.5427C21.4906 20.4684 21.4458 20.4009 21.3892 20.3439Z" fill="black"/>
</svg>
