<svg width="50" height="50" viewBox="0 0 50 50" fill="none" xmlns="http://www.w3.org/2000/svg">
<path d="M35.1553 11.4458H23.3652V37.4355H35.1553V11.4458Z" fill="white"/>
<path d="M39.8961 11.4458H37.5654V37.4355H39.8961C41.2467 37.4355 42.3415 36.3406 42.3415 34.9901V13.8913C42.3415 12.5408 41.2467 11.4458 39.8961 11.4458Z" fill="white"/>
<path d="M26.7217 6.58345C26.7217 6.41745 26.8569 6.28227 27.0229 6.28227H31.498C31.664 6.28227 31.7992 6.41745 31.7992 6.58345V9.03614H35.2416V6.58345C35.2416 4.51914 33.5623 2.83984 31.498 2.83984H27.0229C24.9586 2.83984 23.2793 4.51914 23.2793 6.58345V9.03614H26.7217V6.58345Z" fill="white"/>
<path d="M20.9548 11.4458H18.6242C17.2735 11.4458 16.1787 12.5408 16.1787 13.8913V34.9899C16.1787 36.3406 17.2737 37.4354 18.6242 37.4354H20.9548V11.4458V11.4458Z" fill="white"/>
<path d="M47.7197 39.7591H16.8963C14.4841 39.7591 12.5217 37.7968 12.5217 35.3845V7.81683C12.5217 3.50657 9.01496 0 4.70469 0H2.28061C1.33011 0 0.55957 0.770707 0.55957 1.72121C0.55957 2.67172 1.33011 3.44242 2.28061 3.44242H4.70452C7.11664 3.44242 9.07927 5.40471 9.07927 7.817V35.3847C9.07927 39.6949 12.5858 43.2015 16.8961 43.2015H47.7195C48.67 43.2015 49.4407 42.4308 49.4407 41.4803C49.4407 40.5298 48.6702 39.7591 47.7197 39.7591Z" fill="white"/>
<path d="M16.4805 50C18.049 50 19.3204 48.7285 19.3204 47.1601C19.3204 45.5917 18.049 44.3202 16.4805 44.3202C14.9121 44.3202 13.6406 45.5917 13.6406 47.1601C13.6406 48.7285 14.9121 50 16.4805 50Z" fill="white"/>
<path d="M42.0391 50C43.6075 50 44.879 48.7285 44.879 47.1601C44.879 45.5917 43.6075 44.3202 42.0391 44.3202C40.4707 44.3202 39.1992 45.5917 39.1992 47.1601C39.1992 48.7285 40.4707 50 42.0391 50Z" fill="white"/>
</svg>
